# xmcd
#
# Track frame offsets:
#	150
#	15457
#	29340
#	46362
#	64170
#	74155
#	88752
#	102077
#	113317
#	128685
#	149940
#	180552
#
# Disc length: 2662
#
# Revision: 1
# Processed by: cddbd v1.5.1PL0 Copyright (c) Steve Scherf et al.
# Submitted via: dBpowerAMP V4.0
# Normalized: r0:TRMNUM
#
DISCID=a70a640c
DTITLE=The Baptist Generals - No Silver - No Gold
DYEAR=1900
DGENRE=
TTITLE0=Ay Distress
TTITLE1=Alcohol (Turn and Fall)
TTITLE2=500 League Reunion March (In a Plymouth)
TTITLE3=Going Back Song
TTITLE4=Creeper
TTITLE5=Preservatine
TTITLE6=On a Wheel
TTITLE7=Feds on the Highway
TTITLE8=Burning
TTITLE9=St. Christopher's Medal
TTITLE10=Diminuished
TTITLE11=Going Back Song (4-Track Solo)
EXTD=2003 Sub Pop Records\n\nSPCD 615
EXTT0=
EXTT1=
EXTT2=
EXTT3=
EXTT4=
EXTT5=
EXTT6=
EXTT7=
EXTT8=
EXTT9=
EXTT10=
EXTT11=
PLAYORDER=
